HIERARCHY
ROOT Hips
{
    OFFSET 13.393939971923828 81.72749710083008 -17.183490753173828
    CHANNELS 6 Xposition Yposition Zposition Zrotation Xrotation Yrotation
    JOINT RightUpLeg
    {
        OFFSET -13.393939971923828 0.0 0.0
        CHANNELS 3 Zrotation Xrotation Yrotation
        JOINT RightLeg
        {
            OFFSET 0.0 -38.768768310546875 0.0
            CHANNELS 3 Zrotation Xrotation Yrotation
            JOINT RightFoot
            {
                OFFSET 0.0 -42.9587287902832 0.0
                CHANNELS 3 Zrotation Xrotation Yrotation
                End Site
                {
                    OFFSET 0.0 0.0 17.183490753173828
                }
            }
        }
    }
    JOINT LeftUpLeg
    {
        OFFSET 13.393939971923828 0.0 0.0
        CHANNELS 3 Zrotation Xrotation Yrotation
        JOINT LeftLeg
        {
            OFFSET 0.0 -38.768768310546875 0.0
            CHANNELS 3 Zrotation Xrotation Yrotation
            JOINT LeftFoot
            {
                OFFSET 0.0 -42.9587287902832 0.0
                CHANNELS 3 Zrotation Xrotation Yrotation
                End Site
                {
                    OFFSET 0.0 0.0 17.183490753173828
                }
            }
        }
    }
    JOINT Spine
    {
        OFFSET 0.0 23.221412658691406 0.0
        CHANNELS 3 Zrotation Xrotation Yrotation
        JOINT Spine3
        {
            OFFSET 0.0 25.3260440826416 0.0
            CHANNELS 3 Zrotation Xrotation Yrotation
            JOINT Neck
            {
                OFFSET 0.0 11.011157989501953 0.0
                CHANNELS 3 Zrotation Xrotation Yrotation
                End Site
                {
                    OFFSET 0.0 4.404462814331055 0.0
                }
            }
            JOINT LeftArm
            {
                OFFSET 14.902273178100586 0.0 0.0
                CHANNELS 3 Zrotation Xrotation Yrotation
                JOINT LeftForeArm
                {
                    OFFSET 27.224239349365234 0.0 0.0
                    CHANNELS 3 Zrotation Xrotation Yrotation
                    JOINT LeftHand
                    {
                        OFFSET 18.42660140991211 0.0 0.0
                        CHANNELS 3 Zrotation Xrotation Yrotation
                        End Site
                        {
                            OFFSET 7.370640277862549 0.0 0.0
                        }
                    }
                }
            }
            JOINT RightArm
            {
                OFFSET -14.902273178100586 0.0 0.0
                CHANNELS 3 Zrotation Xrotation Yrotation
                JOINT RightForeArm
                {
                    OFFSET -27.224239349365234 0.0 0.0
                    CHANNELS 3 Zrotation Xrotation Yrotation
                    JOINT RightHand
                    {
                        OFFSET -18.42660140991211 0.0 0.0
                        CHANNELS 3 Zrotation Xrotation Yrotation
                        End Site
                        {
                            OFFSET -7.370640277862549 0.0 0.0
                        }
                    }
                }
            }
        }
    }
}
MOTION
Frames: 6
Frame Time: 0.03333333333333333
0.00032977337832562625 56.376068115234375 -0.0008178850985132158 12.418202010681908 -8.27076572302851 66.91917172019494 16.370036065594697 -56.944799212391466 9.899327702002072 8.447867153865204 74.26570554899709 -14.302727485374007 0.0 0.0 -4.249022269767667e-15 -18.321274384482177 -54.98322269733301 -19.08099683802703 69.81299609532573 77.72399494017066 -56.29944483494538 -1.5902773407317584e-15 3.9756933518293955e-16 1.987846675914698e-15 8.227084837906638 24.76093300865853 -1.524099546682724 -4.459641292931545e-07 -6.012090437001875e-07 6.518138790320088 0.06025089855941871 -6.626778673283027 -179.02630395697113 106.95129621089426 -15.368961885815997 -162.90612600052302 -1.4117122491016262e-06 3.0783728961033727e-06 55.91361946245207 5.963540027744093e-16 4.138037154422024e-33 7.951386703658791e-16 -117.16779407963948 1.3650824437838132 144.78170067436176 -2.6293882593547485e-06 -7.943375034181055e-07 -66.58938035277788 1.5902773407317584e-15 -2.2069531490250793e-32 -1.5902773407317584e-15
0.0003458040882833302 56.376068115234375 -0.0008104021544568241 12.24670414072641 -8.256597945064373 67.13202444066512 16.350566404466814 -57.08504059363221 9.847457278178565 8.44889920905207 74.20534454828334 -14.23535332149065 0.0 0.0 6.708982531212104e-16 -18.538825275145463 -55.064479108341345 -19.33792479024045 69.75552183182518 77.70262160435071 -56.11476502255454 7.951386703658792e-16 1.1927080055488186e-15 -9.144094709207609e-15 8.352065505481173 24.6131206767833 -1.5428407096235603 -4.136650290470515e-07 -1.6630875011460113e-07 6.3859436220042 0.03925233215436474 -6.945149268417559 -179.24650473937402 107.28323501858921 -15.925939536046485 -162.69264835049083 5.134346645481178e-06 -2.1959598489801263e-07 56.15855717196289 2.782985346280577e-15 -6.1623246953355635e-15 7.951386703658794e-16 -117.08117968096508 1.421475453905074 144.59500563064725 5.322665858652989e-07 -4.0942313799082226e-07 -66.06079923641455 0.0 -6.361109362927033e-15 0.0
0.00034132166183553636 56.37605667114258 -0.0008133058436214924 12.181210008632295 -8.241006329057143 67.06590180911691 16.600030199867312 -57.19099430902031 10.07419117346814 8.489914477546453 74.20179108689453 -14.387695342830103 -1.275894789280124e-32 7.951386703658792e-16 1.8387581752210955e-15 -18.384249888449066 -55.07033501142791 -19.202898911687335 69.21683724759986 77.60235929831099 -55.64916117519819 -3.4483642953516866e-32 -1.590277340731758e-15 -2.4848083448933718e-15 8.311649137724759 24.613277924297364 -1.527366001470537 -1.4672963753149623e-07 -6.669165658632484e-07 6.362869247234744 -0.020582213080032476 -7.271300744377624 -179.25350702146528 107.26327337321955 -15.67242965161074 -162.53165334758444 7.047784552632563e-06 -3.2508254504615166e-06 55.93722707068127 -2.3854160110976376e-15 6.1623246953355635e-15 -1.1927080055488186e-15 -117.21719060363307 1.2625715860695013 144.48863805856828 2.753396708147864e-06 1.1068086063635845e-06 -66.46551131808805 -3.1805546814635164e-15 0.0 0.0
0.00035214851959608495 56.376068115234375 -0.0008021850371733308 12.125605335078172 -8.331671422824316 66.98655913548284 16.716479360862053 -57.393189633714904 10.09450193772139 8.579459286022626 74.44419324983167 -14.45529858399794 0.0 0.0 1.2672522558956198e-15 -18.541417908380907 -55.25979741130164 -19.482570551650838 70.05658509212547 77.87656797557618 -56.4372470864855 3.975693351829396e-16 -1.5902773407317584e-15 1.888454342118963e-15 8.432341070307418 24.73717343246317 -1.5353664187934466 3.224085540790453e-07 3.792592113839292e-07 6.4097286910850695 -0.12043018580171892 -7.658102488353554 -179.04578865355103 107.32739296881373 -15.83102340936517 -162.29428546156018 4.7951866335325e-07 1.1722716620694545e-06 56.06451894463747 -1.5902773407317582e-15 -1.9878466759146975e-16 -7.951386703658791e-16 -117.31549180814794 1.283524411328812 144.53173766492878 1.1495030886227178e-06 1.0407431082169515e-06 -67.09596113839223 0.0 0.0 0.0
0.00035398598993197083 56.37605667114258 -0.0007930764695629478 12.013429683192212 -8.296367911794338 66.9932010050465 16.770343140670228 -57.57291883115431 10.167963034110631 8.603018874584075 74.45424831517056 -14.480315418489925 3.975693351829396e-16 1.8103912550596353e-32 5.218097524276082e-15 -18.68588921931273 -55.30165926496444 -19.609205745822933 70.14997596597344 77.92524711120227 -56.476985507819734 -3.975693351829395e-16 1.5902773407317582e-15 -2.9817700138720468e-15 8.362767150377115 24.665719108063183 -1.505790677713916 -7.977270688078382e-08 -2.642521528826248e-07 6.315974685457424 -0.13469234502557803 -7.901373477362825 -179.2017140059769 107.29847078581606 -15.847277066366923 -162.16437274065873 5.88526616868087e-06 1.6301471583610853e-06 56.3826923391308 -1.987846675914698e-16 -6.3611093629270335e-15 -3.975693351829396e-16 -117.14656943418659 1.335264723007772 144.3734690532397 -3.947100411248613e-06 -1.3712377575760696e-06 -67.0091507999498 0.0 0.0 0.0
0.00035588364698924124 56.376068115234375 -0.0008118664263747633 11.877354367891416 -8.367049214230267 66.84246935773277 17.077597605191855 -57.75792090101149 10.335355626555474 8.643678963483541 74.51770093880027 -14.579507980388746 3.975693351829396e-16 -6.034637516865451e-33 -1.7393658414253607e-15 -18.584251092661237 -55.668113100558216 -19.718532260480725 71.12542321814087 78.15295048578741 -57.589637129163236 -7.951386703658792e-16 5.517382872562698e-32 -7.951386703658792e-15 8.372542148273522 24.716160169610234 -1.4559030900219005 1.179304264077363e-06 -1.8683657738655052e-07 6.354895916114437 -0.07347521630129308 -8.27416613173285 -179.2423923334934 107.36338882320686 -16.15419759199513 -162.00672439722436 -2.084155910704047e-06 -8.622783000426801e-07 56.42091486603436 -8.74652537402467e-15 2.7311045219185357e-31 -3.578124016646456e-15 -117.2061881930723 1.3895266799336519 144.38542973437805 -5.004292748954095e-06 8.970315320979803e-07 -67.39071080007544 1.5902773407317584e-15 6.3611093629270335e-15 1.5902773407317584e-15
